<?xml version="1.0" encoding="UTF-8"?>
<svg xmlns="http://www.w3.org/2000/svg" xmlns:xlink="http://www.w3.org/1999/xlink" width="24px" height="36px" viewBox="0 0 24 36" version="1.1">
<g id="surface1">
<path style=" stroke:none;fill-rule:nonzero;fill:rgb(0%,0%,0%);fill-opacity:1;" d="M 22.476562 7.316406 C 22.480469 7.222656 22.484375 7.125 22.484375 7.03125 C 22.484375 4.398438 21.054688 2.253906 19.300781 2.253906 C 19.265625 2.253906 19.230469 2.253906 19.148438 2.261719 L 4.808594 2.257812 C 4.769531 2.257812 4.726562 2.253906 4.683594 2.253906 C 2.929688 2.253906 1.503906 4.390625 1.503906 7.023438 L 1.507812 7.410156 L 1.5 7.410156 L 1.507812 28.328125 L 1.503906 29.042969 C 1.503906 31.644531 2.917969 33.761719 4.652344 33.761719 C 4.691406 33.761719 4.816406 33.753906 4.816406 33.753906 L 19.089844 33.757812 C 19.160156 33.769531 19.234375 33.773438 19.3125 33.773438 C 20.152344 33.773438 20.941406 33.285156 21.535156 32.390625 C 22.132812 31.5 22.460938 30.320312 22.460938 29.058594 L 22.457031 28.636719 L 22.476562 28.636719 Z M 4.71875 31.710938 L 4.660156 31.703125 C 3.664062 31.703125 2.875 30.476562 2.863281 28.914062 L 2.863281 11.695312 L 21.113281 11.695312 L 21.125 28.753906 L 21.101562 28.851562 C 21.089844 28.917969 21.082031 28.980469 21.082031 29.035156 C 21.082031 30.453125 20.34375 31.628906 19.398438 31.707031 L 19.144531 31.730469 L 19.144531 31.710938 Z M 21.113281 9.648438 L 2.867188 9.648438 L 2.859375 7.328125 L 2.878906 7.226562 C 2.890625 7.164062 2.894531 7.097656 2.894531 7.042969 C 2.894531 5.558594 3.710938 4.347656 4.726562 4.34375 L 4.738281 4.339844 L 19.226562 4.339844 L 19.289062 4.347656 C 20.28125 4.347656 21.089844 5.558594 21.089844 7.046875 C 21.089844 7.09375 21.09375 7.140625 21.105469 7.207031 L 21.113281 7.238281 Z M 21.113281 9.648438 "/>
<path style=" stroke:none;fill-rule:nonzero;fill:rgb(0%,0%,0%);fill-opacity:1;" d="M 16.351562 16.574219 C 16.167969 16.574219 15.992188 16.683594 15.863281 16.878906 L 10.625 24.734375 L 8.125 20.984375 C 7.992188 20.785156 7.820312 20.675781 7.636719 20.675781 C 7.449219 20.675781 7.277344 20.785156 7.144531 20.980469 C 7.015625 21.175781 6.941406 21.433594 6.941406 21.710938 C 6.941406 21.992188 7.011719 22.253906 7.144531 22.449219 L 10.132812 26.933594 C 10.265625 27.128906 10.4375 27.238281 10.625 27.238281 C 10.808594 27.238281 10.984375 27.128906 11.117188 26.933594 L 16.839844 18.347656 C 16.96875 18.15625 17.042969 17.894531 17.042969 17.617188 C 17.042969 17.339844 16.972656 17.074219 16.839844 16.878906 C 16.710938 16.683594 16.535156 16.574219 16.351562 16.574219 Z M 16.351562 16.574219 "/>
</g>
</svg>
