<?xml version="1.0" encoding="UTF-8"?>
<svg xmlns="http://www.w3.org/2000/svg" xmlns:xlink="http://www.w3.org/1999/xlink" width="24px" height="36px" viewBox="0 0 24 36" version="1.1">
<g id="surface1">
<path style=" stroke:none;fill-rule:evenodd;fill:rgb(0%,0%,0%);fill-opacity:1;" d="M 2.667969 8.46875 L 2.667969 5.292969 C 2.667969 4.710938 2.945312 4.234375 3.332031 4.234375 L 5.570312 4.234375 L 5.570312 5.292969 C 5.570312 5.878906 5.886719 6.351562 6.273438 6.351562 C 6.664062 6.351562 6.980469 5.878906 6.980469 5.292969 L 6.980469 4.234375 L 16.863281 4.234375 L 16.863281 5.292969 C 16.863281 5.878906 17.179688 6.351562 17.570312 6.351562 C 17.957031 6.351562 18.273438 5.878906 18.273438 5.292969 L 18.273438 4.234375 L 20.667969 4.234375 C 21.054688 4.234375 21.332031 4.710938 21.332031 5.292969 L 21.332031 8.46875 Z M 2.667969 34 L 21.332031 34.117188 L 21.332031 10.707031 L 2.667969 10.707031 Z M 20.667969 2.117188 L 18.273438 2.117188 L 18.273438 1.058594 C 18.273438 0.472656 17.957031 0 17.570312 0 C 17.179688 0 16.863281 0.472656 16.863281 1.058594 L 16.863281 2.117188 L 6.980469 2.117188 L 6.980469 1.058594 C 6.980469 0.472656 6.664062 0 6.273438 0 C 5.886719 0 5.570312 0.472656 5.570312 1.058594 L 5.570312 2.117188 L 3.449219 2.117188 C 2.285156 2.117188 1.332031 3.542969 1.332031 5.292969 L 1.332031 36 L 22.667969 36 L 22.667969 5 C 22.667969 3.25 21.835938 2.117188 20.667969 2.117188 Z M 20.667969 2.117188 "/>
<path style=" stroke:none;fill-rule:evenodd;fill:rgb(0%,0%,0%);fill-opacity:1;" d="M 12.742188 21.070312 L 12 17.472656 L 11.253906 21.070312 L 8.695312 21.070312 L 10.765625 23.433594 L 10.003906 27.117188 L 12 24.839844 L 13.996094 27.117188 L 13.234375 23.433594 L 15.304688 21.070312 Z M 16.355469 20.507812 L 16.851562 20.273438 L 16.355469 20.503906 M 16.851562 20.273438 L 16.855469 20.273438 L 17.308594 20.058594 C 17.371094 20.351562 17.304688 20.671875 17.148438 20.851562 L 14.394531 23.992188 L 15.445312 29.070312 C 15.507812 29.367188 15.441406 29.683594 15.28125 29.863281 C 15.121094 30.046875 14.910156 30.046875 14.75 29.863281 L 12 26.726562 L 9.25 29.863281 C 9.167969 29.953125 9.078125 30 8.984375 30 C 8.890625 30 8.796875 29.953125 8.71875 29.863281 C 8.558594 29.683594 8.492188 29.367188 8.554688 29.070312 L 9.605469 23.992188 L 6.851562 20.851562 C 6.695312 20.671875 6.628906 20.351562 6.6875 20.058594 C 6.75 19.765625 6.921875 19.570312 7.117188 19.570312 L 10.519531 19.570312 L 11.570312 14.492188 C 11.632812 14.199219 11.804688 14 12 14 C 12.195312 14 12.367188 14.195312 12.429688 14.488281 L 12.523438 14.941406 L 13.480469 19.570312 L 16.878906 19.570312 C 17.078125 19.570312 17.25 19.765625 17.308594 20.058594 Z M 16.851562 20.273438 "/>
</g>
</svg>
